<svg xmlns="http://www.w3.org/2000/svg" width="32" height="32" viewBox="0 0 32 32">
  <defs>
    <style>
      .cls-1 {
        fill-rule: evenodd;
        fill:#fff;
      }
    </style>
  </defs>
  <path id="ic-11_" class="cls-1" d="M30.993,15.645c0-.037,0-0.075,0-0.112q0-.122-0.009-0.245c0-.042,0-0.085-0.006-0.126q-0.006-.118-0.015-0.237c0-.04-0.005-0.079-0.009-0.119q-0.011-.142-0.025-0.284c0-.022,0-0.044-0.006-0.065-0.012-.115-0.025-0.23-0.039-0.344,0-.034-0.009-0.067-0.014-0.1-0.011-.082-0.022-0.162-0.034-0.243q-0.01-.063-0.02-0.125c-0.012-.075-0.024-0.149-0.037-0.223-0.007-.042-0.014-0.083-0.022-0.125-0.015-.08-0.03-0.161-0.046-0.241l-0.019-.1c-0.023-.11-0.047-0.22-0.072-0.329C30.61,12.6,30.6,12.569,30.6,12.54c-0.019-.082-0.039-0.163-0.059-0.243-0.01-.042-0.021-0.083-0.033-0.124q-0.027-.1-0.056-0.207l-0.036-.128c-0.02-.071-0.041-0.141-0.063-0.212l-0.035-.115c-0.033-.1-0.066-0.209-0.1-0.312l-0.023-.067c-0.029-.083-0.058-0.167-0.088-0.249-0.015-.041-0.03-0.082-0.046-0.123-0.024-.065-0.048-0.129-0.073-0.193l-0.052-.131-0.076-.187L29.8,10.123c-0.032-.074-0.064-0.147-0.1-0.221l-0.038-.086Q29.6,9.671,29.533,9.528l-0.058-.119c-0.029-.06-0.059-0.12-0.089-0.18L29.319,9.1c-0.029-.057-0.059-0.113-0.089-0.169L29.161,8.8c-0.033-.061-0.068-0.121-0.1-0.182L29,8.516q-0.079-.136-0.16-0.271l-0.067-.109c-0.035-.057-0.071-0.115-0.107-0.172l-0.079-.123-0.1-.156L28.4,7.563,28.289,7.4l-0.077-.11c-0.061-.085-0.122-0.169-0.184-0.253h0a15.049,15.049,0,0,0-6.442-4.962h0q-0.154-.062-0.31-0.12L21.254,1.95q-0.148-.055-0.3-0.107l-0.04-.014c-0.095-.032-0.19-0.065-0.285-0.1l-0.055-.018C20.485,1.686,20.393,1.657,20.3,1.63l-0.07-.021c-0.088-.026-0.177-0.051-0.266-0.075l-0.084-.023-0.257-.066-0.1-.024-0.248-.058-0.11-.024-0.24-.05-0.123-.023-0.231-.042L18.44,1.2c-0.073-.012-0.147-0.024-0.221-0.035-0.05-.008-0.1-0.014-0.151-0.021l-0.211-.029L17.693,1.1l-0.2-.022L17.311,1.06l-0.187-.016-0.2-.013-0.168-.01c-0.079,0-.159-0.007-0.238-0.009l-0.137,0Q16.189,1,16,1t-0.378,0l-0.137,0c-0.079,0-.159,0-0.238.009l-0.169.01-0.2.013-0.187.016-0.181.016-0.2.022-0.164.019-0.212.029-0.15.021L13.56,1.2l-0.136.022-0.231.042-0.122.024-0.241.05-0.109.024-0.249.058-0.1.023-0.258.067-0.082.022c-0.089.024-.179,0.05-0.268,0.076l-0.068.02-0.278.086-0.053.017q-0.145.047-.288,0.1l-0.037.013q-0.15.052-.3,0.108l-0.018.007A15.033,15.033,0,0,0,3.966,7.049c-0.06.08-.119,0.161-0.177,0.242l-0.081.116c-0.036.052-.072,0.1-0.107,0.155l-0.085.126-0.1.152-0.081.126c-0.035.055-.069,0.111-0.1,0.166l-0.071.114Q3.08,8.379,3,8.515l-0.063.111c-0.033.059-.067,0.118-0.1,0.178L2.77,8.933C2.74,8.988,2.711,9.044,2.682,9.1L2.615,9.23l-0.088.177-0.059.121c-0.045.095-.089,0.189-0.132,0.284L2.295,9.9c-0.033.073-.065,0.146-0.1,0.22l-0.052.125q-0.039.093-.076,0.187l-0.052.131q-0.037.1-.073,0.192L1.9,10.881q-0.045.124-.088,0.249C1.8,11.152,1.8,11.175,1.788,11.2c-0.035.1-.069,0.208-0.1,0.312l-0.035.115c-0.021.07-.042,0.141-0.063,0.212-0.012.042-.024,0.085-0.036,0.128-0.019.069-.038,0.138-0.056,0.208-0.011.041-.022,0.082-0.032,0.124-0.021.081-.04,0.162-0.059,0.244C1.4,12.57,1.39,12.6,1.383,12.628c-0.025.109-.049,0.219-0.071,0.329-0.007.032-.013,0.065-0.019,0.1-0.016.08-.032,0.16-0.047,0.241-0.008.042-.015,0.083-0.022,0.125q-0.019.111-.037,0.223c-0.007.042-.013,0.083-0.019,0.124-0.012.082-.024,0.163-0.034,0.245,0,0.034-.009.067-0.013,0.1q-0.021.172-.039,0.344l-0.006.065q-0.014.142-.025,0.284c0,0.04-.006.079-0.009,0.119-0.005.079-.011,0.158-0.015,0.237,0,0.042,0,.084-0.007.126q-0.006.122-.009,0.245c0,0.037,0,.075,0,0.112C1,15.763,1,15.881,1,16s0,0.212,0,.318c0,0.048,0,.1,0,0.143s0,0.082,0,.122a14.918,14.918,0,0,0,2.26,7.355h0q0.382,0.611.819,1.18l0,0.006q0.432,0.562.915,1.082l0.022,0.024c0.061,0.065.123,0.13,0.185,0.195l0.008,0.008q0.29,0.3.6,0.582l0.019,0.018L6.028,27.2l0.051,0.045C6.139,27.3,6.2,27.351,6.26,27.4L6.3,27.439q0.291,0.247.6,0.48l0.061,0.047L7.133,28.1l0.083,0.061,0.173,0.123L7.47,28.336q0.289,0.2.587,0.386l0.1,0.063,0.166,0.1,0.113,0.067,0.165,0.1,0.117,0.066q0.288,0.161.584,0.308l0.13,0.065L9.6,29.564,9.73,29.626,9.893,29.7l0.139,0.06,0.162,0.07h0a15.038,15.038,0,0,0,11.538.03h0L22,29.746l0.027-.012c0.088-.039.176-0.078,0.263-0.119l0.022-.011a14.807,14.807,0,0,0,1.337-.706l0.027-.016c0.077-.046.154-0.093,0.231-0.141l0.047-.029,0.222-.142,0.045-.03,0.225-.15,0.009-.007q0.362-.247.709-0.516l0.036-.027,0.185-.148,0.075-.06,0.17-.141,0.085-.072c0.054-.046.108-0.092,0.161-0.139l0.088-.078,0.157-.141,0.081-.076q0.167-.156.33-0.316l0.046-.044,0.129-.131,0.107-.11,0.12-.126,0.111-.119,0.113-.125,0.114-.128,0.105-.121,0.12-.142,0.095-.113c0.05-.061.1-0.122,0.148-0.184l0.062-.077q0.1-.129.2-0.26l0.071-.1c0.043-.058.086-0.117,0.129-0.176l0.078-.11L28.4,24.44l0.076-.113c0.039-.057.077-0.116,0.114-0.174l0.071-.11c0.041-.064.081-0.128,0.12-0.193l0.058-.094q0.086-.143.169-0.286l0,0h0a14.917,14.917,0,0,0,1.974-6.882c0-.04,0-0.081,0-0.122s0-.1,0-0.142c0-.106,0-0.212,0-0.319S31,15.763,30.993,15.645ZM16.612,5.692L20.4,2.943q0.487,0.164.964,0.366a13.84,13.84,0,0,1,6.2,5.2l-1.321,4.17-3.936,1.293L16.612,9.838V5.692ZM6.261,6.261a13.733,13.733,0,0,1,4.378-2.952q0.477-.2.964-0.366l3.784,2.749V9.838L9.665,14,5.765,12.7,4.438,8.511A13.824,13.824,0,0,1,6.261,6.261ZM8.668,24.793L4.932,24.2a13.71,13.71,0,0,1-2.7-8.078l3.156-2.258,3.9,1.3,2.21,6.8ZM21.961,28.42q-0.3.142-.6,0.271a13.818,13.818,0,0,1-10.721,0q-0.342-.145-0.674-0.307L9.534,25.658l3.051-3.051h7.259l2.622,2.622Zm6.73-7.06a13.757,13.757,0,0,1-1.281,2.357l-4.079.646L20.608,21.64l2.117-6.515L26.6,13.852l3.173,2.27A13.681,13.681,0,0,1,28.691,21.361Z"/>
</svg>
