<svg xmlns="http://www.w3.org/2000/svg" width="32" height="32" viewBox="0 0 32 32">
  <defs>
    <style>
      .cls-1 {
        fill-rule: evenodd;
        fill:#fff;
      }
    </style>
  </defs>
  <path id="ic-22" class="cls-1" d="M17.721,3.931a4.006,4.006,0,0,0,.236-2.243c0-.037,0-0.072-0.006-0.108-0.476-.045-0.957-0.07-1.444-0.07a14.971,14.971,0,0,0-5.3.967,34.976,34.976,0,0,1,5.02,2.974A10.777,10.777,0,0,0,17.721,3.931Zm7.6,8.554a9.991,9.991,0,0,0-1.9.375C25.974,17.308,26.967,22.927,27.21,27a14.931,14.931,0,0,0,4.281-9.9C29.751,14.962,27.446,12.244,25.321,12.485ZM10.168,8.646a13.273,13.273,0,0,0,4.815-2.225A31.9,31.9,0,0,0,9.386,3.3a15.052,15.052,0,0,0-6.579,7.1A29.416,29.416,0,0,1,8.336,9C8.94,8.887,9.565,8.771,10.168,8.646ZM20.535,9.082q0.24,0.241.477,0.49a15.9,15.9,0,0,1,1.6,1.993A10.565,10.565,0,0,1,25.152,11c2.351-.266,4.441,1.6,6.235,3.645a14.926,14.926,0,0,0-3.7-8.135,21.345,21.345,0,0,0-3.524.719A17.253,17.253,0,0,0,20.535,9.082Zm-1.974,7.742c0.615-2.083,1.328-3.584,2.708-4.559a14.056,14.056,0,0,0-1.343-1.659c-0.223-.235-0.449-0.461-0.676-0.684C13.711,13.69,6.124,20.612,5.434,26.61a14.962,14.962,0,0,0,9,4.735c1.292-2.571,2.508-7.8,3.231-10.9C18.015,18.948,18.314,17.658,18.561,16.823Zm-6.28-3.3a53.442,53.442,0,0,1,5.836-4.656c-0.622-.55-1.245-1.057-1.858-1.521a15.059,15.059,0,0,1-5.786,2.77c-0.618.128-1.252,0.246-1.864,0.36A21.346,21.346,0,0,0,2.083,12.4,14.969,14.969,0,0,0,4.2,25.062C5.3,20.72,9.06,16.487,12.281,13.521Zm7.128-5.512A19.83,19.83,0,0,1,23.73,5.788a22.105,22.105,0,0,1,2.608-.6A14.946,14.946,0,0,0,19.466,1.8a4.56,4.56,0,0,1-.547,3.032,11.724,11.724,0,0,1-1.465,1.531C18.1,6.866,18.755,7.414,19.409,8.009ZM20,17.248c-0.234.793-.529,2.063-0.871,3.532a64.6,64.6,0,0,1-3.1,10.7c0.16,0.005.32,0.012,0.481,0.012a14.934,14.934,0,0,0,9.259-3.2c-0.1-4.259-1.123-10.286-3.7-14.759C21.072,14.271,20.534,15.437,20,17.248Z"/>
</svg>
