<svg xmlns="http://www.w3.org/2000/svg" width="18" height="18" viewBox="0 0 18 18">
  <defs>
    <style>
      .cls-1 {
        fill-rule: evenodd;
        fill: #3a215d;
      }
    </style>
  </defs>
  <path id="ic-1" class="cls-1" d="M17,8.562c0-.02,0-0.041,0-0.061,0-.046,0-0.09-0.005-0.135,0-.023,0-0.046,0-0.069,0-.044-0.005-0.087-0.008-0.13,0-.022,0-0.044,0-0.065q-0.006-.078-0.014-0.156c0-.012,0-0.024,0-0.036-0.006-.063-0.014-0.126-0.021-0.189,0-.019,0-0.037-0.007-0.056-0.006-.045-0.012-0.089-0.019-0.134L16.9,7.462C16.9,7.421,16.89,7.38,16.883,7.339l-0.012-.069Q16.859,7.2,16.846,7.138c0-.018-0.007-0.036-0.011-0.053C16.823,7.024,16.81,6.963,16.8,6.9c0-.016-0.008-0.032-0.012-0.048-0.011-.045-0.021-0.09-0.033-0.134l-0.018-.069c-0.01-.038-0.02-0.076-0.031-0.114l-0.02-.071c-0.011-.038-0.023-0.078-0.034-0.116L16.63,6.288c-0.018-.057-0.036-0.115-0.056-0.172l-0.013-.037c-0.016-.046-0.032-0.091-0.048-0.137C16.5,5.92,16.5,5.9,16.488,5.875l-0.04-.106L16.419,5.7l-0.042-.1-0.029-.069L16.3,5.4l-0.021-.047C16.251,5.3,16.226,5.251,16.2,5.2l-0.032-.065-0.049-.1-0.036-.071L16.035,4.87,16,4.8l-0.056-.1-0.033-.059c-0.029-.05-0.058-0.1-0.088-0.149l-0.037-.06c-0.02-.031-0.039-0.063-0.059-0.094l-0.043-.067-0.056-.087L15.58,4.118,15.518,4.03l-0.042-.06c-0.033-.047-0.067-0.093-0.1-0.139h0A8.257,8.257,0,0,0,11.839,1.1h0l-0.17-.066-0.012,0-0.163-.059-0.022-.008c-0.052-.019-0.1-0.036-0.157-0.053l-0.03-.01-0.151-.047L11.1,0.843,10.95,0.8,10.9,0.789l-0.141-.036L10.709,0.74l-0.136-.031L10.513,0.7l-0.132-.027-0.067-.013-0.127-.023L10.112,0.62,9.991,0.6,9.909,0.589,9.793,0.573,9.7,0.562l-0.11-.012-0.1-.009-0.1-.009L9.279,0.526,9.186,0.52l-0.131,0-0.075,0c-0.069,0-.138,0-0.208,0l-0.207,0-0.075,0-0.131,0-0.093.006-0.111.007-0.1.009-0.1.008-0.11.012-0.09.01-0.116.016L7.555,0.6,7.434,0.62l-0.074.012-0.127.023-0.067.013L7.033,0.7l-0.06.013L6.837,0.74l-0.053.013-0.142.037L6.6,0.8,6.45,0.843l-0.037.012L6.261,0.9l-0.029.01-0.158.053-0.02.007-0.165.06-0.01,0a8.256,8.256,0,0,0-3.711,2.8c-0.033.044-.065,0.088-0.1,0.133l-0.045.064-0.059.085-0.046.069-0.055.083-0.045.07L1.764,4.43l-0.039.063c-0.03.049-.059,0.1-0.087,0.148L1.6,4.7l-0.055.1-0.038.071-0.048.092-0.037.072-0.048.1L1.345,5.2C1.32,5.25,1.3,5.3,1.272,5.355L1.25,5.4,1.2,5.525l-0.029.069-0.042.1L1.1,5.769l-0.04.106-0.025.068Q1.009,6.011.985,6.079l-0.013.037C0.953,6.174.935,6.231,0.917,6.288L0.9,6.352C0.886,6.39.874,6.429,0.863,6.468l-0.02.071C0.832,6.577.822,6.615,0.812,6.653,0.806,6.676.8,6.7,0.794,6.721,0.783,6.765.772,6.81,0.762,6.855L0.75,6.9c-0.014.06-.027,0.121-0.039,0.181C0.707,7.1.7,7.12,0.7,7.138Q0.687,7.2.675,7.271l-0.012.069c-0.007.04-.014,0.081-0.02,0.122,0,0.023-.007.046-0.011,0.069C0.625,7.575.619,7.619,0.613,7.664L0.606,7.72C0.6,7.783.591,7.846,0.584,7.909c0,0.012,0,.024,0,0.036Q0.573,8.023.567,8.1c0,0.022,0,.044,0,0.065,0,0.044-.006.087-0.008,0.13,0,0.023,0,.046,0,0.069,0,0.045,0,.09-0.005.135,0,0.021,0,.041,0,0.061,0,0.065,0,.13,0,0.2s0,0.117,0,.175c0,0.026,0,.053,0,0.079s0,0.044,0,.067a8.213,8.213,0,0,0,1.24,4.045h0Q2,13.459,2.238,13.772l0,0q0.237,0.309.5,0.6l0.012,0.013,0.1,0.107,0,0c0.106,0.11.215,0.217,0.328,0.32L3.2,14.826l0.1,0.091,0.028,0.024,0.1,0.086,0.023,0.02q0.16,0.137.327,0.264L3.81,15.338l0.1,0.071,0.046,0.033L4.046,15.51l0.045,0.031c0.106,0.074.213,0.144,0.322,0.213l0.055,0.035L4.56,15.844,4.622,15.88l0.09,0.053,0.064,0.036q0.158,0.088.32,0.169l0.072,0.036,0.089,0.043,0.074,0.035,0.09,0.04L5.5,16.325l0.089,0.039h0a8.244,8.244,0,0,0,6.333.016h0l0.149-.064,0.015-.006,0.144-.065,0.012-.006a8.259,8.259,0,0,0,.734-0.388l0.015-.009,0.127-.078,0.026-.016,0.122-.078,0.025-.016,0.123-.083,0,0q0.2-.137.389-0.283l0.02-.015,0.1-.081,0.041-.033,0.093-.077,0.047-.04,0.088-.077,0.048-.042,0.086-.078,0.045-.042c0.061-.057.122-0.115,0.181-0.174l0.025-.024,0.071-.072,0.058-.06,0.066-.069,0.061-.066,0.062-.069,0.063-.071,0.058-.067,0.066-.078,0.052-.062,0.081-.1,0.034-.042c0.037-.047.073-0.095,0.109-0.143l0.039-.053,0.071-.1,0.042-.06,0.064-.093,0.042-.062,0.063-.1,0.039-.06,0.066-.106,0.032-.052q0.047-.078.093-0.158l0,0h0A8.214,8.214,0,0,0,17,9.078c0-.022,0-0.044,0-0.067s0-.053,0-0.079c0-.058,0-0.116,0-0.175S17,8.627,17,8.562ZM9.109,3.089l2.077-1.512q0.267,0.09.529,0.2a7.6,7.6,0,0,1,3.4,2.861L14.395,6.933l-2.161.71L9.109,5.368V3.089ZM3.427,3.4a7.537,7.537,0,0,1,2.4-1.623q0.262-.111.529-0.2L8.437,3.089V5.368L5.3,7.655l-2.14-.712-0.728-2.3A7.61,7.61,0,0,1,3.427,3.4ZM4.749,13.593L2.7,13.267A7.543,7.543,0,0,1,1.214,8.825L2.947,7.583,5.088,8.3,6.3,12.037Zm7.3,2c-0.108.052-.218,0.1-0.329,0.149a7.573,7.573,0,0,1-5.885,0c-0.125-.053-0.248-0.11-0.37-0.169l-0.237-1.5L6.9,12.391h3.984l1.44,1.442Zm3.694-3.882a7.552,7.552,0,0,1-.7,1.3l-2.239.355-1.5-1.5,1.162-3.583,2.126-.7,1.742,1.248A7.535,7.535,0,0,1,15.739,11.706Z"/>
</svg>
