<svg xmlns="http://www.w3.org/2000/svg" width="18" height="18" viewBox="0 0 18 18">
  <defs>
    <style>
      .cls-1 {
        fill-rule: evenodd;
        fill: #3a215d;
      }
    </style>
  </defs>
  <path id="ic-12" class="cls-1" d="M16.209,5.154a0.771,0.771,0,0,0-.478-0.683,0.871,0.871,0,0,0-.288-0.047,0.757,0.757,0,0,0-.529.189,0.637,0.637,0,0,0-.176.523c0.034,0.425-.006,1.63-0.03,2.35-0.009.267-.015,0.46-0.015,0.534a0.087,0.087,0,0,1-.087.095c-0.146,0-.146-0.063-0.146-0.087,0-.372-0.029-2.538-0.1-3.46a0.68,0.68,0,0,0-.44-0.606,0.71,0.71,0,0,0-.249-0.044,0.782,0.782,0,0,0-.549.228,0.805,0.805,0,0,0-.227.639c0.012,0.206.03,0.488,0.05,0.787,0.045,0.689.1,2.248,0.1,2.514a0.2,0.2,0,0,1-.021.1,0.117,0.117,0,0,1-.122.047c-0.166,0-.172-0.087-0.172-0.09,0-.165-0.021-1.327-0.045-1.858-0.03-.662-0.067-1.486-0.067-1.837a0.75,0.75,0,0,0-.47-0.7,0.8,0.8,0,0,0-.306-0.062,0.73,0.73,0,0,0-.521.213,0.91,0.91,0,0,0-.241.66c0,0.858.041,3.337,0.057,3.6a0.132,0.132,0,0,1-.124.131A0.116,0.116,0,0,1,10.9,8.164c-0.009-.113-0.019-0.457-0.029-0.821s-0.021-.732-0.033-0.961V6.365c-0.023-.454-0.05-0.968-0.079-1.41a0.838,0.838,0,0,0-.506-0.783,0.736,0.736,0,0,0-.259-0.046,0.834,0.834,0,0,0-.584.249,0.976,0.976,0,0,0-.273.7,9.235,9.235,0,0,0,.09.923,12.238,12.238,0,0,1,.051,3.445l-0.008.022a0.737,0.737,0,0,1-.3.33,0.3,0.3,0,0,1-.188.069A1.188,1.188,0,0,1,8.2,9.549l-0.136-.1a1.739,1.739,0,0,0-.59-0.326A0.8,0.8,0,0,0,7.292,9.1a1.163,1.163,0,0,0-.788.344,0.8,0.8,0,0,0-.258.651,0.822,0.822,0,0,0,.425.6c0.162,0.1.324,0.2,0.495,0.3a8.626,8.626,0,0,1,2.309,1.855,0.3,0.3,0,0,1,.033.192l0,0.006-0.648,2.95a0.512,0.512,0,0,0,.095.4,0.581,0.581,0,0,0,.477.188h6.919A0.481,0.481,0,0,0,16.9,16.04C16.908,14.255,16.248,5.527,16.209,5.154ZM6.92,11.618l-0.089-.051c-0.169-.1-0.344-0.2-0.517-0.309a1.417,1.417,0,0,1-.28-2.286,1.824,1.824,0,0,1,1.257-.538,1.465,1.465,0,0,1,.342.04,2.037,2.037,0,0,1,.695.34,0.3,0.3,0,0,0,.166.054A0.221,0.221,0,0,0,8.661,8.8,0.24,0.24,0,0,0,8.718,8.6C8.7,8.359,8.685,8.043,8.674,7.709c-0.017-.51-0.036-1.088-0.1-1.632C8.559,6,8.551,5.931,8.543,5.873,8.525,5.731,8.512,5.637,8.5,5.5a0.619,0.619,0,0,0-.12-0.338l0-.006a38.783,38.783,0,0,1-1.619-3.68A0.972,0.972,0,0,0,6.2.973,0.868,0.868,0,0,0,5.93.929a0.777,0.777,0,0,0-.573.244,0.839,0.839,0,0,0-.1.928c0.173,0.407.38,0.876,0.563,1.291L5.829,3.41c0.092,0.21.25,0.546,0.4,0.873s0.3,0.64.343,0.746a0.117,0.117,0,0,1-.04.159,0.125,0.125,0,0,1-.054.015,0.172,0.172,0,0,1-.115-0.076C6.26,4.882,5.183,2.652,4.8,1.887a0.906,0.906,0,0,0-.512-0.48A0.714,0.714,0,0,0,4.061,1.37a0.77,0.77,0,0,0-.583.275,0.751,0.751,0,0,0-.1.839C3.532,2.8,3.855,3.518,4.141,4.154c0.217,0.485.721,1.531,0.8,1.678,0,0,.035.083-0.113,0.158a0.211,0.211,0,0,1-.087.026A0.134,0.134,0,0,1,4.63,5.925C4.511,5.688,3.859,4.27,3.589,3.636c-0.127-.3-0.231-0.542-0.31-0.725a0.8,0.8,0,0,0-.49-0.467,0.78,0.78,0,0,0-.241-0.038,0.756,0.756,0,0,0-.555.235,0.682,0.682,0,0,0-.12.739c0.348,0.859,1.3,2.8,1.463,3.135a0.078,0.078,0,0,1,.007.056,0.187,0.187,0,0,1-.1.088,0.093,0.093,0,0,1-.042.012,0.11,0.11,0,0,1-.078-0.057C3.093,6.548,3,6.379,2.873,6.145,2.527,5.513,1.949,4.455,1.788,4.06A0.637,0.637,0,0,0,1.4,3.673a0.565,0.565,0,0,0-.175-0.026A0.912,0.912,0,0,0,.6,3.916a0.773,0.773,0,0,0-.119.825c0.133,0.351,3.47,8.439,4.279,10.029a0.5,0.5,0,0,0,.43.325h0a0.692,0.692,0,0,0,.31-0.088l3.109-1.575a0.276,0.276,0,0,0,.127-0.2,0.372,0.372,0,0,0-.1-0.323A7.063,7.063,0,0,0,6.92,11.618Z"/>
</svg>
