<svg xmlns="http://www.w3.org/2000/svg" width="18" height="18" viewBox="0 0 18 18">
  <defs>
    <style>
      .cls-1 {
        fill-rule: evenodd;
        fill: #3a215d;
      }
    </style>
  </defs>
  <path id="ic-11" class="cls-1" d="M14.679,3.484A25.807,25.807,0,0,0,11.692,2.2a0.965,0.965,0,0,0-.946-0.274,13.6,13.6,0,0,1-1.532.147,13.6,13.6,0,0,1-1.532-.147,0.959,0.959,0,0,0-.946.274A26.108,26.108,0,0,0,3.749,3.484,19.349,19.349,0,0,0,.99,5.166a33.959,33.959,0,0,0,2.131,3.54A5.065,5.065,0,0,1,4.1,8.3c0.014,0.577.038,7.258,0.038,7.643,0,0.244,2.847.285,5.071,0.285s5.071-.042,5.071-0.285c0-.388.024-7.066,0.038-7.643a5.065,5.065,0,0,1,.98.409,33.938,33.938,0,0,0,2.131-3.54A19.407,19.407,0,0,0,14.679,3.484ZM5.64,15.459H4.818V14.377H5.64v1.082ZM8.4,8.97a0.053,0.053,0,0,1-.051.051H7.528A0.052,0.052,0,0,1,7.477,8.97V6.938A0.051,0.051,0,0,0,7.395,6.9a2.52,2.52,0,0,1-.35.213,3.429,3.429,0,0,1-.456.181A0.052,0.052,0,0,1,6.521,7.24V6.6A0.054,0.054,0,0,1,6.559,6.55,2.083,2.083,0,0,0,7.244,6.2a1.458,1.458,0,0,0,.387-0.49,0.057,0.057,0,0,1,.048-0.031H8.347a0.053,0.053,0,0,1,.051.051V8.97h0Zm3.056,0a0.053,0.053,0,0,1-.051.051H10.585a0.053,0.053,0,0,1-.051-0.051V6.938A0.051,0.051,0,0,0,10.451,6.9a2.514,2.514,0,0,1-.349.213,3.437,3.437,0,0,1-.456.181A0.052,0.052,0,0,1,9.577,7.24V6.6A0.054,0.054,0,0,1,9.615,6.55,2.085,2.085,0,0,0,10.3,6.2a1.459,1.459,0,0,0,.387-0.49,0.058,0.058,0,0,1,.048-0.031H11.4a0.052,0.052,0,0,1,.051.051V8.97h0Z"/>
</svg>
