<svg xmlns="http://www.w3.org/2000/svg" width="18" height="18" viewBox="0 0 18 18">
  <defs>
    <style>
      .cls-1 {
        fill-rule: evenodd;
        fill: #3a215d;
      }
    </style>
  </defs>
  <path id="ic-10" class="cls-1" d="M9.587,5.518C9.44,5.315,9.312,5.147,9.218,5.03,8.779,4.482,8.46,4.427,8,4.741c-0.005,0-.409.291-1.117,0.775a3.713,3.713,0,0,0,1.714-.031A1.544,1.544,0,0,1,9.587,5.518ZM1.138,9.6a0.264,0.264,0,0,0,.177.244l0.768,0.235-0.014.539a0.217,0.217,0,0,0,.153.205l0.618,0.166a0.218,0.218,0,0,0,.235-0.1l0.236-.435L4,10.657l-0.013.509a0.217,0.217,0,0,0,.153.206l0.618,0.166a0.218,0.218,0,0,0,.235-0.1l0.225-.415c0.208,0.061.415,0.124,0.622,0.186L5.83,11.68a0.218,0.218,0,0,0,.153.206L6.6,12.052a0.218,0.218,0,0,0,.235-0.1l0.2-.37c1.1,0.348,2.2.7,3.315,1.021l-0.013.506a0.217,0.217,0,0,0,.153.205l0.618,0.166a0.217,0.217,0,0,0,.235-0.1l0.239-.44q0.332,0.087.665,0.166l-0.013.494a0.218,0.218,0,0,0,.153.206l0.618,0.166a0.217,0.217,0,0,0,.235-0.1l0.265-.487c0.2,0.039.4,0.076,0.6,0.11l-0.016.606a0.217,0.217,0,0,0,.153.205l0.618,0.166a0.216,0.216,0,0,0,.235-0.1l0.378-.7q0.4,0.037.809,0.049t0.813,0a0.275,0.275,0,0,0,.238-0.192l0.208-.775a1.086,1.086,0,0,0-.008-0.489,1.429,1.429,0,0,0-.638-0.748,12.837,12.837,0,0,0-1.266-.751c-0.184-.1-0.365-0.2-0.546-0.308-0.27-.159-0.539-0.321-0.809-0.481-0.541-.323-1.073-0.658-1.584-1.022a0.271,0.271,0,0,0-.138-0.431,0.249,0.249,0,0,0-.29.113q-0.25-.191-0.492-0.4a0.275,0.275,0,0,0-.11-0.465,0.25,0.25,0,0,0-.292.117C11.2,7.735,11.03,7.578,10.865,7.416a0.277,0.277,0,0,0-.085-0.487,0.248,0.248,0,0,0-.281.1A4.5,4.5,0,0,1,10.1,6.51a3.042,3.042,0,0,0-.256-0.374,1.237,1.237,0,0,0-1.221-.257,4.084,4.084,0,0,1-2.865-.385,2.807,2.807,0,0,1-.978-1A2.619,2.619,0,0,1,4.542,3.83a0.634,0.634,0,0,0-.319-0.505A1.715,1.715,0,0,0,2.93,3.88,3.993,3.993,0,0,0,1.463,5.806,8.137,8.137,0,0,0,1.168,8.16C1.151,8.639,1.149,9.118,1.138,9.6ZM2.583,4.936a18.324,18.324,0,0,0,5.9,3.932A6.673,6.673,0,0,1,12,12.354q-0.312-.089-0.623-0.183-0.614-.187-1.223-0.388c-1-.329-2-0.68-3-1.022l-0.226-.076A4.44,4.44,0,0,0,5.282,8.2,9.527,9.527,0,0,1,3,6.09a3.6,3.6,0,0,1-.364-0.883A0.644,0.644,0,0,1,2.583,4.936Z"/>
</svg>
