<svg xmlns="http://www.w3.org/2000/svg" width="18" height="18" viewBox="0 0 18 18">
  <defs>
    <style>
      .cls-1 {
        fill-rule: evenodd;
        fill: #3a215d;
      }
    </style>
  </defs>
  <path id="ic-2" class="cls-1" d="M9.929,2.336a2.206,2.206,0,0,0,.13-1.233q0-.03,0-0.06C9.794,1.019,9.53,1,9.263,1a8.2,8.2,0,0,0-2.908.531A19.16,19.16,0,0,1,9.109,3.171,5.93,5.93,0,0,0,9.929,2.336Zm4.168,4.7a5.5,5.5,0,0,0-1.04.206,18.632,18.632,0,0,1,2.076,7.769,8.212,8.212,0,0,0,2.348-5.439C16.527,8.4,15.262,6.9,14.1,7.036ZM5.786,4.927A7.279,7.279,0,0,0,8.427,3.7a17.473,17.473,0,0,0-3.07-1.712,8.263,8.263,0,0,0-3.608,3.9,16.081,16.081,0,0,1,3.032-.771C5.113,5.059,5.456,5,5.786,4.927Zm5.686,0.239Q11.6,5.3,11.734,5.435a8.775,8.775,0,0,1,.878,1.1A5.776,5.776,0,0,1,14,6.217c1.289-.146,2.436.877,3.42,2a8.208,8.208,0,0,0-2.031-4.47,11.662,11.662,0,0,0-1.933.395A9.474,9.474,0,0,0,11.472,5.166ZM10.39,9.42a4.311,4.311,0,0,1,1.485-2.5A7.764,7.764,0,0,0,11.138,6c-0.123-.129-0.246-0.253-0.371-0.376C7.729,7.7,3.568,11.5,3.19,14.8a8.2,8.2,0,0,0,4.938,2.6A34.048,34.048,0,0,0,9.9,11.408C10.09,10.587,10.254,9.879,10.39,9.42ZM6.945,7.605a29.247,29.247,0,0,1,3.2-2.558C9.8,4.745,9.463,4.466,9.127,4.211A8.254,8.254,0,0,1,5.954,5.733c-0.339.071-.686,0.135-1.022,0.2a11.671,11.671,0,0,0-3.58,1.057,8.239,8.239,0,0,0,1.161,6.959C3.114,11.561,5.178,9.236,6.945,7.605Zm3.909-3.029a10.885,10.885,0,0,1,2.37-1.221,12.2,12.2,0,0,1,1.43-.332,8.192,8.192,0,0,0-3.769-1.858,2.511,2.511,0,0,1-.3,1.666,6.378,6.378,0,0,1-.8.841C10.136,3.949,10.5,4.25,10.855,4.577Zm0.324,5.076c-0.128.436-.29,1.134-0.478,1.941A35.526,35.526,0,0,1,9,17.473c0.088,0,.176.007,0.264,0.007a8.179,8.179,0,0,0,5.078-1.76,18.3,18.3,0,0,0-2.027-8.11A3.629,3.629,0,0,0,11.178,9.653Z"/>
</svg>
