<svg xmlns="http://www.w3.org/2000/svg" width="18" height="18" viewBox="0 0 18 18">
  <defs>
    <style>
      .cls-1 {
        fill-rule: evenodd;
        fill: #3a215d;
      }
    </style>
  </defs>
  <path id="ic-4" class="cls-1" d="M15.031,13.66a1.906,1.906,0,1,1-1.9,1.906A1.9,1.9,0,0,1,15.031,13.66ZM13.854,3.019A6.851,6.851,0,0,0,2.654,5.3l8.922,8.933A6.864,6.864,0,0,0,13.854,3.019ZM2.176,7.329A6.879,6.879,0,0,0,3.256,11.6L0.327,14.535a0.347,0.347,0,0,0,0,.49l1.534,1.536a0.345,0.345,0,0,0,.49,0L5.28,13.628A6.85,6.85,0,0,0,9.548,14.71a6.7,6.7,0,0,0,.769-0.1L2.281,6.559A6.815,6.815,0,0,0,2.176,7.329Z"/>
</svg>
