<svg xmlns="http://www.w3.org/2000/svg" width="18" height="18" viewBox="0 0 18 18">
  <defs>
    <style>
      .cls-1 {
        fill-rule: evenodd;
        fill: #3a215d;
      }
    </style>
  </defs>
  <path id="ic-8" class="cls-1" d="M17.479,5.941l-1.626-1.63L16.163,4a1.183,1.183,0,0,0-1.672-1.675l-0.31.31L12.556,1.007,10.881,2.685,9.414,1.215,7.739,2.893l3.093,3.1L6.014,10.821l-3.093-3.1L1.246,9.4l1.467,1.47L1.039,12.547l1.626,1.629-0.31.311a1.183,1.183,0,1,0,1.672,1.675l0.31-.311L5.96,17.479,7.636,15.8,9.1,17.273,10.776,15.6,7.683,12.5,12.5,7.667l3.093,3.1,1.674-1.678L15.8,7.619Z"/>
</svg>
