<svg xmlns="http://www.w3.org/2000/svg" width="25" height="25" viewBox="0 0 25 25">
  <defs>
    <style>
      .cls-1 {
        fill-rule: evenodd;
      }
    </style>
  </defs>
  <path id="ic-store" class="cls-1" d="M0.12,9.767A3,3,0,0,0,2.4,12.659v9.848H0.879a0.75,0.75,0,1,0,0,1.5H23.647a0.75,0.75,0,1,0,0-1.5H22.129V12.659a3,3,0,0,0,2.277-2.892V9.018H0.12V9.767Zm15.179,3a3.016,3.016,0,0,0,3.036-3,3,3,0,0,0,2.277,2.892v9.848H9.227V12.765a3.016,3.016,0,0,0,3.036-3A3.018,3.018,0,0,0,15.3,12.765Zm-6.83-.106v9.848H3.915V12.659A3,3,0,0,0,6.191,9.767,3,3,0,0,0,8.468,12.659ZM21.37,2.273H3.156l-3.036,6H24.406ZM6.532,3.939l-1.518,3a0.384,0.384,0,0,1-.341.208A0.376,0.376,0,0,1,4.336,6.6l1.518-3a0.384,0.384,0,0,1,.508-0.168A0.373,0.373,0,0,1,6.532,3.939Zm3.036,0-1.518,3a0.384,0.384,0,0,1-.341.208A0.376,0.376,0,0,1,7.371,6.6l1.518-3A0.384,0.384,0,0,1,9.4,3.437,0.373,0.373,0,0,1,9.568,3.939ZM12.642,6.77a0.379,0.379,0,0,1-.759,0v-3a0.379,0.379,0,0,1,.759,0v3ZM17,7.1a0.381,0.381,0,0,1-.516-0.147l-1.66-3a0.371,0.371,0,0,1,.151-0.508,0.381,0.381,0,0,1,.516.148l1.66,3A0.374,0.374,0,0,1,17,7.1ZM20.021,7.1a0.357,0.357,0,0,1-.169.04,0.376,0.376,0,0,1-.338-0.208L18,3.939a0.371,0.371,0,0,1,.169-0.5,0.384,0.384,0,0,1,.51.168l1.518,3A0.372,0.372,0,0,1,20.021,7.1ZM6.571,18.125V16.4a0.74,0.74,0,0,1-.38-0.635,0.759,0.759,0,0,1,1.518,0,0.737,0.737,0,0,1-.38.635v1.727a0.737,0.737,0,0,1,.38.635,0.759,0.759,0,0,1-1.518,0A0.739,0.739,0,0,1,6.571,18.125ZM3.156,0.774A0.755,0.755,0,0,1,3.915.025h16.7a0.75,0.75,0,1,1,0,1.5H3.915A0.755,0.755,0,0,1,3.156.774Zm10.266,16-0.537-.53,2.146-2.119,0.537,0.53Zm0,2.119-0.537-.529,4.293-4.239,0.537,0.53Zm3.756-2.649,0.537,0.53L15.569,18.9l-0.537-.529Z"/>
</svg>
