<?xml version="1.0" standalone="no"?>
<!DOCTYPE svg PUBLIC "-//W3C//DTD SVG 20010904//EN"
 "http://www.w3.org/TR/2001/REC-SVG-20010904/DTD/svg10.dtd">
<svg version="1.0" xmlns="http://www.w3.org/2000/svg"
 width="1280.000000pt" height="936.000000pt" viewBox="0 0 1280.000000 936.000000"
 preserveAspectRatio="xMidYMid meet">
<metadata>
Created by potrace 1.15, written by Peter Selinger 2001-2017
</metadata>
<g transform="translate(0.000000,936.000000) scale(0.100000,-0.100000)"
fill="#9e9e9e" stroke="none">
<path d="M3700 9354 c-631 -52 -1001 -149 -1470 -383 -354 -177 -660 -400
-955 -696 -503 -502 -817 -1057 -980 -1730 -83 -341 -109 -507 -125 -786 -45
-775 192 -1617 646 -2299 232 -349 592 -740 949 -1033 556 -456 1211 -822
2045 -1142 505 -194 911 -281 1365 -292 l220 -6 24 -54 c38 -86 138 -230 217
-313 404 -423 1065 -479 1534 -129 219 163 366 380 438 648 23 86 26 114 26
281 1 160 -2 197 -22 275 -29 116 -78 235 -136 330 -25 42 -46 79 -46 83 1 11
231 181 355 261 126 82 379 210 475 241 102 32 195 43 305 36 l100 -7 320
-148 c176 -82 929 -431 1673 -775 745 -345 1360 -625 1367 -622 14 5 186 242
302 416 199 298 274 470 409 939 36 123 63 225 62 226 -2 1 -268 109 -593 240
-324 130 -869 350 -1210 487 -341 138 -856 346 -1145 462 l-525 212 -52 64
c-28 36 -69 98 -91 140 -143 270 -244 820 -270 1465 -6 166 -5 184 13 230 17
43 19 62 13 135 -58 661 -471 1313 -1204 1896 -657 523 -1549 952 -2444 1173
-293 72 -597 124 -910 156 -147 15 -583 27 -680 19z"/>
</g>
</svg>
